<svg width="20" height="20" viewBox="0 0 20 20" fill="none" xmlns="http://www.w3.org/2000/svg">
<path d="M6.35412 19.9762C6.20066 20.0031 6.02918 20.0062 5.84502 19.9762H6.35412C6.8077 19.8964 7.10375 19.608 7.10375 19.3504C7.10375 19.2076 7.10107 18.9554 7.09747 18.6178L7.09747 18.6176C7.09331 18.2267 7.08793 17.7214 7.08409 17.1394C3.03412 17.9248 2.17962 15.3961 2.17962 15.3961C1.51729 13.8947 0.562671 13.4948 0.562671 13.4948C-0.759311 12.6879 0.66278 12.7038 0.66278 12.7038C2.1242 12.7964 2.8929 14.044 2.8929 14.044C4.19164 16.0307 6.30109 15.4568 7.13057 15.1247C7.26286 14.2843 7.63827 13.7111 8.05479 13.3863C4.82179 13.0582 1.42254 11.9424 1.42254 6.96004C1.42254 5.54085 1.99012 4.38028 2.9215 3.47114C2.77134 3.14228 2.27168 1.82047 3.06362 0.0301295C3.06362 0.0301295 4.28639 -0.319479 7.068 1.36311C8.22909 1.07496 9.4751 0.930492 10.7131 0.925702C11.9492 0.930492 13.1952 1.07496 14.3581 1.36311C17.1379 -0.319479 18.358 0.0301295 18.358 0.0301295C19.1526 1.82047 18.653 3.14228 18.5028 3.47114C19.436 4.38028 20 5.54085 20 6.96004C20 11.9551 16.5954 13.0542 13.3517 13.3759C13.8746 13.7774 14.3402 14.5708 14.3402 15.7841C14.3402 16.9462 14.3322 17.9583 14.3269 18.6288L14.3269 18.6306C14.3243 18.9618 14.3224 19.2094 14.3224 19.3504C14.3224 19.6063 14.464 19.8929 14.833 19.9762H15.3235C15.1279 20.0097 14.9657 20.0061 14.833 19.9762H6.35412Z" fill="#D8D8D8"/>
</svg>
