<svg width="20" height="20" viewBox="0 0 20 20" fill="none" xmlns="http://www.w3.org/2000/svg">


<path fill-rule="evenodd" clip-rule="evenodd" d="M10 1.8018C12.6701 1.8018 12.9864 1.812 14.0409 1.86011C15.0158 1.90457 15.5453 2.06748 15.8977 2.20443C16.3645 2.38583 16.6976 2.60253 17.0475 2.95244C17.3975 3.30239 17.6142 3.63551 17.7956 4.10229C17.9325 4.45466 18.0954 4.98415 18.1399 5.95914C18.188 7.0136 18.1982 7.32989 18.1982 9.99998C18.1982 12.6701 18.188 12.9864 18.1399 14.0409C18.0954 15.0158 17.9325 15.5453 17.7956 15.8977C17.6142 16.3645 17.3975 16.6976 17.0476 17.0475C16.6976 17.3975 16.3645 17.6142 15.8977 17.7956C15.5453 17.9325 15.0158 18.0954 14.0409 18.1399C12.9866 18.188 12.6703 18.1982 10 18.1982C7.32969 18.1982 7.01348 18.188 5.95914 18.1399C4.98415 18.0954 4.45466 17.9325 4.10229 17.7956C3.63551 17.6142 3.30239 17.3975 2.95248 17.0475C2.60257 16.6976 2.38583 16.3645 2.20443 15.8977C2.06748 15.5453 1.90457 15.0158 1.86011 14.0409C1.812 12.9864 1.8018 12.6701 1.8018 9.99998C1.8018 7.32989 1.812 7.0136 1.86011 5.95914C1.90457 4.98415 2.06748 4.45466 2.20443 4.10229C2.38583 3.63551 2.60253 3.30239 2.95248 2.95248C3.30239 2.60253 3.63551 2.38583 4.10229 2.20443C4.45466 2.06748 4.98415 1.90457 5.95914 1.86011C7.0136 1.812 7.32989 1.8018 10 1.8018ZM10 0C7.28416 0 6.94362 0.0115116 5.87701 0.0601777C4.81263 0.108725 4.08569 0.277786 3.44962 0.524967C2.79203 0.780524 2.23436 1.12246 1.67839 1.67839C1.12246 2.23436 0.780524 2.79203 0.525007 3.44962C0.277786 4.08569 0.108725 4.81263 0.0601777 5.87701C0.0115116 6.94362 0 7.28416 0 9.99998C0 12.7158 0.0115116 13.0564 0.0601777 14.123C0.108725 15.1874 0.277786 15.9143 0.525007 16.5504C0.780524 17.208 1.12246 17.7656 1.67839 18.3216C2.23436 18.8775 2.79203 19.2195 3.44962 19.475C4.08569 19.7222 4.81263 19.8913 5.87701 19.9398C6.94362 19.9885 7.28416 20 10 20C12.7158 20 13.0564 19.9885 14.123 19.9398C15.1874 19.8913 15.9143 19.7222 16.5504 19.475C17.208 19.2195 17.7656 18.8775 18.3216 18.3216C18.8775 17.7656 19.2195 17.208 19.475 16.5504C19.7222 15.9143 19.8913 15.1874 19.9398 14.123C19.9885 13.0564 20 12.7158 20 9.99998C20 7.28416 19.9885 6.94362 19.9398 5.87701C19.8913 4.81263 19.7222 4.08569 19.475 3.44962C19.2195 2.79203 18.8775 2.23436 18.3216 1.67839C17.7656 1.12246 17.208 0.780524 16.5504 0.524967C15.9143 0.277786 15.1874 0.108725 14.123 0.0601777C13.0564 0.0115116 12.7158 0 10 0ZM10.0047 4.86957C7.16857 4.86957 4.86951 7.16863 4.86951 10.0047C4.86951 12.8408 7.16857 15.1398 10.0047 15.1398C12.8407 15.1398 15.1398 12.8408 15.1398 10.0047C15.1398 7.16863 12.8407 4.86957 10.0047 4.86957ZM10.0047 13.338C8.16368 13.338 6.67131 11.8457 6.67131 10.0047C6.67131 8.16375 8.16368 6.67137 10.0047 6.67137C11.8456 6.67137 13.338 8.16375 13.338 10.0047C13.338 11.8457 11.8456 13.338 10.0047 13.338ZM15.3423 5.86346C16.005 5.86346 16.5423 5.32619 16.5423 4.66348C16.5423 4.00073 16.005 3.46345 15.3423 3.46345C14.6795 3.46345 14.1423 4.00073 14.1423 4.66348C14.1423 5.32619 14.6795 5.86346 15.3423 5.86346Z" fill="#D8D8D8"/>
</svg>
