<svg width="20" height="19" viewBox="0 0 20 19" fill="none" xmlns="http://www.w3.org/2000/svg">
<path fill-rule="evenodd" clip-rule="evenodd" d="M2.13106 4.1242C3.47885 4.1242 4.3407 3.20817 4.3407 2.07627C4.31486 0.889351 3.47882 0 2.15688 0C0.83576 0 -0.0260703 0.889351 0.000602051 2.07627C-0.0260703 3.20817 0.83578 4.1242 2.13106 4.1242ZM0.108963 5.74203V18.9256H4.20649V5.74203H0.108963ZM7.3823 5.74381C7.43648 6.90322 7.49066 8.30519 7.49066 9.9497H7.49231V18.9283H11.5899V11.325C11.5899 10.9466 11.6432 10.5698 11.7516 10.2998C12.0208 9.54545 12.6943 8.76361 13.827 8.76361C15.3098 8.76361 15.9024 9.92219 15.9024 11.6217V18.9283H20V11.1083C20 7.22746 17.9779 5.44792 15.2823 5.44792C13.0985 5.44792 11.7507 6.71402 11.2114 7.55003H11.1306L10.9414 5.74381H7.3823Z" fill="#D8D8D8"/>
</svg>
