<svg width="20" height="14" viewBox="0 0 20 14" fill="none" xmlns="http://www.w3.org/2000/svg">
<path fill-rule="evenodd" clip-rule="evenodd" d="M18.9096 1.02079C19.2201 1.31642 19.4439 1.68434 19.5586 2.08791C20.2192 4.61905 20.0666 8.61661 19.5715 11.2454C19.4567 11.649 19.233 12.0169 18.9224 12.3125C18.6118 12.6082 18.2253 12.8212 17.8014 12.9304C16.2493 13.3333 10.0027 13.3333 10.0027 13.3333C10.0027 13.3333 3.75609 13.3333 2.20405 12.9304C1.7801 12.8212 1.39359 12.6082 1.08303 12.3125C0.772468 12.0169 0.548683 11.649 0.433961 11.2454C-0.230464 8.72528 -0.0483234 4.72528 0.421136 2.10012C0.535855 1.69655 0.75964 1.32863 1.0702 1.033C1.38077 0.73737 1.76727 0.524343 2.19122 0.415143C3.74326 0.012207 9.98988 0 9.98988 0C9.98988 0 16.2365 0 17.7885 0.402929C18.2125 0.512136 18.599 0.725163 18.9096 1.02079ZM13.1837 6.66666L8.00174 9.5238V3.80952L13.1837 6.66666Z" fill="#D8D8D8"/>
</svg>
